<svg id="_x33_0" enable-background="new 0 0 64 64" height="512" viewBox="0 0 64 64" width="512" xmlns="http://www.w3.org/2000/svg" xmlns:xlink="http://www.w3.org/1999/xlink"><linearGradient id="SVGID_1_" gradientUnits="userSpaceOnUse" x1="32" x2="32" y1="63" y2="1"><stop offset="0" stop-color="#9f2fff"/><stop offset="1" stop-color="#0bb1d3"/></linearGradient><path d="m51 56c0 .552-.448 1-1 1s-1-.448-1-1 .448-1 1-1 1 .448 1 1zm-1-5c-.552 0-1 .448-1 1s.448 1 1 1 1-.448 1-1-.448-1-1-1zm-49-5v-8.699c0-3.642 1.769-7.08 4.733-9.196 1.845-1.318 4.007-2.034 6.267-2.093v-4.598l-.293-.293c-.98-.98-1.565-2.249-1.682-3.614-.921-.772-3.025-2.926-3.025-6.507 0-2.764 1.015-5.429 2.715-7.129 1.874-1.874 4.274-2.871 6.821-2.871h8.05c1.179 0 2.288.459 3.121 1.293.834.833 1.293 1.942 1.293 3.121 0 2.12-.891 4.155-2.417 5.599.266.61.417 1.28.417 1.987v4.07c0 1.409-.265 2.787-.789 4.094-.875 2.187-2.892 3.631-5.211 3.802v1.034h.185c3.348 0 6.579 1.214 9.097 3.418 2.998 2.624 4.718 6.413 4.718 10.397v3.771l5.786-5.786c.776-1.718 1.785-3.336 3.029-4.787l1.201-1.401c.29-.338.689-.572 1.125-.66l1.859-.372v-3.622c-.143.011-.283.042-.426.042h-.271c-1.05 0-2.067-.308-2.941-.891-1.479-.985-2.362-2.635-2.362-4.412v-.697h-2v-1c0-.117.007-2.116.358-5.033l-1.701-1.361c-1.689-1.351-2.657-3.366-2.657-5.527 0-3.904 3.175-7.079 7.079-7.079h4.608c2.404 0 4.664.936 6.364 2.636l2.377 2.376c3.661.222 6.572 3.272 6.572 6.988v5.292c0 2.668-1.482 5.067-3.869 6.261l-2.131 1.065v3.764l1.105.553c1.702.852 3.108 2.258 3.96 3.96.612 1.222.935 2.591.935 3.959v25.146h-24v-9.586l-.95.95c-1.7 1.7-3.96 2.636-6.364 2.636h-2.686v6h-24v-8.521c-2.441-2.019-4-5.07-4-8.479zm26 11h-.873c-.005 0-.01.001-.015.001h-.001l-14.111-.001c-1.801 0-3.498-.444-5-1.214v5.214h20zm-4-8v6.002h2v-.002h1.127c.763-.004 1.482-.304 2.026-.849.548-.549.849-1.274.847-2.043-.003-1.754-1.346-3.105-2.994-3.108h-1.006zm18 12h4v-13.48l.375-.3c.141-.113.27-.236.407-.352l-3.763-6.773c-.662 1.894-1.019 3.897-1.019 5.933zm10.798-23.432 1.73-6.054-1.852.37-1.623 3.245 1.004 4.519c.281-.676.537-1.366.741-2.08zm-2.607-5.187-2.193.438-.002 1.181h1.386zm-3.16 10.816 1.254 2.257c.885-.929 1.666-1.942 2.342-3.024l-1.429-6.43h-1.31zm9.829-12.149-.126.025-2.013 7.045c-1.164 4.073-3.483 7.643-6.721 10.355v12.527h6v-16h2v16h6v-23.146c0-1.059-.25-2.119-.724-3.065-.659-1.318-1.748-2.406-3.065-3.065zm-15.178-18.383c.098-.6.209-1.222.337-1.862l.096-.479.438-.219c.09-.044 2.237-1.105 4.447-1.105 2.655 0 4.533 1.164 5.64 2.139.618.545 1.027 1.168 1.224 1.861h.136c2.206 0 4 1.794 4 4 0 1.828-1.221 2.99-1.975 3.534.034.373.101.77.198 1.17.18.737.53 1.437 1.017 2.057l1.996-.998c1.705-.852 2.764-2.565 2.764-4.471v-5.292c0-2.757-2.243-5-5-5h-.414l-2.95-2.95c-1.322-1.322-3.08-2.05-4.949-2.05h-4.608c-2.801 0-5.079 2.278-5.079 5.079 0 1.551.695 2.997 1.906 3.966zm9.318 17.515 5-1v-3.782c-.84-.935-1.432-2.041-1.72-3.22-.186-.762-.28-1.495-.28-2.178v-.618l.553-.276c.009-.005 1.447-.764 1.447-2.106 0-1.103-.897-2-2-2h-2v-1c0-.525-.21-.944-.682-1.36-.849-.748-2.287-1.64-4.318-1.64-1.219 0-2.476.44-3.118.703-.6 3.172-.792 5.899-.853 7.297h1.971v2.697c0 1.107.55 2.134 1.471 2.748.544.363 1.178.555 1.832.555h.271c.218 0 .436-.021.648-.064l4.582-.917.393 1.961-3.197.64zm-6.979 7.599 1.351 2.432.628-5.271v-.2c-.765.95-1.426 1.967-1.979 3.039zm-3.591 4.205-5.551 5.551c-.931.931-2.22 1.465-3.537 1.465h-.374c.637.841 1.03 1.876 1.032 3.011s-.348 2.148-.97 2.989h1.656c1.87 0 3.627-.728 4.95-2.05l2.364-2.364v-4.558c0-1.368.156-2.72.43-4.044zm-10.465-11.061c-1.073-.939-2.297-1.667-3.609-2.162l-6.356 15.437v2.802h7 .001.005.994v-6h2v6h1.342c.791 0 1.564-.32 2.124-.879l.534-.535v-5.771c0-3.407-1.471-6.648-4.035-8.892zm-13.347-2.923 1 2h1.764l1-2zm7.799.217c-.594-.114-1.198-.176-1.808-.198l-1.569 3.137.624 3.746zm-11.116-.217c-.236 0-.467.036-.7.054l2.862 6.082.497-2.98-1.578-3.156zm3.66 9.318 1.978 4.204 1.282-3.114-1.068-6.408h-1.305zm9.039-24.318c0-1.654-1.346-3-3-3h-5c-1.654 0-3 1.346-3 3v3h-1c-.551 0-1 .449-1 1 0 1.022.398 1.984 1.121 2.707l.879.879v5.414h5v-1.211c-.65-.17-1.273-.436-1.84-.814l-1.714-1.143 1.109-1.664 1.714 1.143c.676.451 1.463.689 2.276.689 1.688 0 3.183-1.013 3.81-2.58.428-1.069.645-2.197.645-3.35zm-13 1.171v-1.171c0-2.757 2.243-5 5-5h5c1.317 0 2.508.522 3.402 1.358 1.009-1.053 1.598-2.468 1.598-3.944 0-.635-.258-1.258-.707-1.707s-1.072-.707-1.707-.707h-8.05c-2.013 0-3.91.789-5.341 2.22-1.399 1.398-2.195 3.535-2.195 5.78 0 1.989.852 3.401 1.572 4.242.354-.488.85-.866 1.428-1.071zm-9 31.829c0 4.963 4.038 9 9 9l9 .001v-6.001h-10.006c-1.099 0-1.994-.897-1.994-2v-6h2v6h6v-2.776l-7.438-15.806c-.945.291-1.845.728-2.667 1.315-2.439 1.742-3.895 4.571-3.895 7.568z" fill="url(#SVGID_1_)"/></svg>