<svg id="Layer_35" enable-background="new 0 0 64 64" height="512" viewBox="0 0 64 64" width="512" xmlns="http://www.w3.org/2000/svg" xmlns:xlink="http://www.w3.org/1999/xlink"><linearGradient id="SVGID_1_" gradientUnits="userSpaceOnUse" x1="31.976" x2="31.976" y1="63" y2="1"><stop offset="0" stop-color="#9f2fff"/><stop offset="1" stop-color="#0bb1d3"/></linearGradient><path d="m53 25v-1c0-4.663-2.921-8.647-7.025-10.245 1.825-1.265 3.025-3.372 3.025-5.755 0-3.859-3.141-7-7-7s-7 3.141-7 7c0 2.38 1.196 4.483 3.017 5.749-1.135.441-2.191 1.075-3.135 1.879-.881-.4-1.854-.628-2.882-.628s-2.001.228-2.881.628c-.944-.804-2-1.438-3.135-1.879 1.82-1.266 3.016-3.369 3.016-5.749 0-3.859-3.141-7-7-7s-7 3.141-7 7c0 2.383 1.2 4.49 3.025 5.755-4.104 1.598-7.025 5.582-7.025 10.245v1.065l-2.049-2.732-8 10.667h4v22h2v-24h-2l4-5.333 4 5.333h-2v28h2v-4.307c4.837 5.297 11.615 8.307 18.856 8.307h.387c7.216 0 13.972-2.991 18.806-8.256v4.256h2v-28h-2l4-5.333 4 5.333h-2v24h2v-22h4l-8-10.667zm-2 8v14.256c-2.288-2.491-5.005-4.472-8-5.867v-3.389c0-3.72-1.861-7.008-4.695-9h11.695l-3 4zm-19 28c-5.514 0-10-4.486-10-10s4.486-10 10-10 10 4.486 10 10-4.486 10-10 10zm4-28v6.29c-1.25-.186-2.52-.29-3.807-.29h-.387c-1.286 0-2.556.104-3.806.29v-6.29h-2v6.662c-1.021.236-2.022.54-3 .897v-2.559c0-4.963 4.037-9 9-9s9 4.037 9 9v2.559c-.978-.358-1.979-.661-3-.897v-6.662zm1-25c0-2.757 2.243-5 5-5s5 2.243 5 5-2.243 5-5 5-5-2.243-5-5zm5 7c4.963 0 9 4.037 9 9v3h-3v-8h-2v8h-9.111c1.301-1.272 2.111-3.042 2.111-5 0-2.077-.915-3.94-2.356-5.223 1.543-1.147 3.403-1.777 5.356-1.777zm-5 7c0 2.757-2.243 5-5 5s-5-2.243-5-5 2.243-5 5-5 5 2.243 5 5zm-20-14c0-2.757 2.243-5 5-5s5 2.243 5 5-2.243 5-5 5-5-2.243-5-5zm5 7c1.953 0 3.812.63 5.356 1.777-1.442 1.284-2.356 3.146-2.356 5.223 0 1.958.81 3.728 2.111 5h-9.111v-8h-2v8h-3v-3c0-4.963 4.037-9 9-9zm-9.049 18h4l-3-4h11.744c-2.834 1.992-4.695 5.28-4.695 9v3.388c-3.016 1.406-5.751 3.403-8.049 5.92zm.455 19.157c-.261-.328-.406-.739-.406-1.157s.145-.829.406-1.156c2.704-3.381 6.212-5.887 10.143-7.353-2.19 2.175-3.549 5.186-3.549 8.509 0 3.324 1.359 6.334 3.549 8.51-3.93-1.467-7.438-3.972-10.143-7.353zm37.188-.001c-2.704 3.381-6.212 5.887-10.143 7.353 2.19-2.175 3.549-5.186 3.549-8.509 0-3.324-1.359-6.334-3.549-8.51 3.931 1.466 7.439 3.972 10.143 7.352.261.329.406.74.406 1.158s-.145.829-.406 1.156zm6.406 4.844h2v2h-2zm0 4h2v2h-2zm-52.049-4h2v2h-2zm0 4h2v2h-2zm27.049-18c-4.411 0-8 3.589-8 8s3.589 8 8 8 8-3.589 8-8-3.589-8-8-8zm0 14c-3.309 0-6-2.691-6-6s2.691-6 6-6 6 2.691 6 6-2.691 6-6 6zm0-10c-2.206 0-4 1.794-4 4s1.794 4 4 4 4-1.794 4-4-1.794-4-4-4zm0 6c-1.103 0-2-.897-2-2s.897-2 2-2 2 .897 2 2-.897 2-2 2z" fill="url(#SVGID_1_)"/></svg>